<?xml version="1.0" encoding="iso-8859-1"?>
<!-- Generator: Adobe Illustrator 18.0.0, SVG Export Plug-In . SVG Version: 6.00 Build 0)  -->
<!DOCTYPE svg PUBLIC "-//W3C//DTD SVG 1.1//EN" "http://www.w3.org/Graphics/SVG/1.1/DTD/svg11.dtd">
<svg version="1.1" id="Capa_1" xmlns="http://www.w3.org/2000/svg" xmlns:xlink="http://www.w3.org/1999/xlink" x="0px" y="0px"
	 viewBox="0 0 462.968 462.968" style="enable-background:new 0 0 462.968 462.968;" xml:space="preserve">
<g id="XMLID_1075_">
	<circle id="XMLID_1085_" cx="230.336" cy="31.363" r="27.81"/>
	<circle id="XMLID_1086_" cx="81.336" cy="70.696" r="27.81"/>
	<circle id="XMLID_1087_" cx="382.669" cy="111.363" r="27.81"/>
	<path id="XMLID_1097_" d="M456.192,419.796h-47.08c5.356-2.615,9.055-8.099,9.055-14.461v-27.427
		c-6.422-3.391-10.811-10.135-10.811-17.888v-53.396c0-7.753,4.389-14.497,10.811-17.888c0-25.158-0.283,0.558-0.292-108.914
		c0-1.54,1.24-2.793,2.78-2.808c1.54-0.015,2.806,1.213,2.836,2.754l0.495,98.58c0.023,4.578,2.392,8.645,5.857,11.014v11.733
		h-2.269c-3.054,0-5.53,2.476-5.53,5.53v53.396c0,3.054,2.476,5.53,5.53,5.53h20.241c3.054,0,5.53-2.476,5.53-5.53v-53.396
		c0-3.054-2.476-5.53-5.53-5.53h-2.34v-12.113c3.327-2.514,5.369-6.469,5.347-10.769l-0.495-98.58
		c-0.088-17.421-14.333-31.595-31.755-31.595h-14.132c-1.758,4.592-14.369,38.531-16.255,43.457l3.922-18.475
		c0.275-1.297,0.075-2.65-0.563-3.813l-5.386-9.795l4.788-8.486c0.332-0.604,0.321-1.338-0.03-1.931s-0.989-0.957-1.678-0.957
		h-13.141c-0.689,0-1.327,0.364-1.678,0.957c-0.351,0.593-0.362,1.328-0.03,1.931l4.788,8.486l-5.406,9.832
		c-0.627,1.14-0.832,2.465-0.578,3.741l3.429,18.51c-1.712-4.392-13.867-38.684-15.728-43.457h-14.358
		c-17.422,0-31.667,14.174-31.755,31.595l-0.495,98.58c-0.037,7.411,5.94,13.448,13.351,13.486c0.023,0,0.046,0,0.069,0
		c7.379,0,13.38-5.963,13.417-13.351l0.495-98.58c0.007-1.429,1.169-2.582,2.598-2.579s2.584,1.163,2.584,2.591l0.006,225.556
		c0,6.362,3.699,11.846,9.055,14.461h-47.256c0-10.102,0-62.099,0-72.463c0-3.742-3.034-6.776-6.776-6.776h-46.886
		c6.332-2.168,10.89-8.157,10.89-15.223v-27.427c-6.421-3.391-10.81-10.135-10.81-17.888v-53.396c0-7.753,4.389-14.497,10.81-17.888
		c0-25.158-0.283,0.558-0.292-108.914c0-1.54,1.24-2.793,2.781-2.808c1.54-0.015,2.806,1.213,2.835,2.754l0.495,98.58
		c0.023,4.578,2.392,8.645,5.857,11.014v11.733h-2.269c-3.054,0-5.53,2.476-5.53,5.53v53.396c0,3.054,2.476,5.53,5.53,5.53h20.241
		c3.054,0,5.53-2.476,5.53-5.53v-53.396c0-3.054-2.476-5.53-5.53-5.53h-2.341v-12.113c3.327-2.514,5.369-6.469,5.347-10.769
		l-0.495-98.58c-0.088-17.421-14.333-31.595-31.754-31.595h-14.132c-1.758,4.592-14.37,38.531-16.255,43.457l3.922-18.475
		c0.275-1.297,0.075-2.65-0.564-3.813l-5.385-9.795l4.788-8.486c0.332-0.604,0.321-1.338-0.03-1.931
		c-0.351-0.593-0.989-0.957-1.678-0.957h-13.141c-0.689,0-1.327,0.364-1.678,0.957s-0.362,1.328-0.03,1.931l4.788,8.486
		l-5.406,9.832c-0.627,1.14-0.832,2.465-0.578,3.741l3.429,18.51c-1.712-4.392-13.866-38.684-15.727-43.457h-14.358
		c-17.422,0-31.667,14.174-31.754,31.595l-0.495,98.58c-0.037,7.411,5.94,13.448,13.351,13.486c0.023,0,0.046,0,0.069,0
		c7.379,0,13.379-5.963,13.417-13.351l0.495-98.58c0.007-1.429,1.169-2.582,2.598-2.579c1.428,0.004,2.584,1.163,2.584,2.591
		l0.006,225.556c0,7.066,4.559,13.055,10.89,15.223h-44.343c-3.742,0-6.776,3.034-6.776,6.776v32.843h-49.232
		c6.812-1.877,11.822-8.1,11.822-15.509v-27.427c-6.421-3.391-10.81-10.135-10.81-17.888v-53.396c0-7.753,4.389-14.497,10.81-17.888
		c0-25.158-0.283,0.558-0.292-108.914c0-1.54,1.24-2.793,2.781-2.808c1.54-0.015,2.806,1.213,2.835,2.754l0.495,98.58
		c0.023,4.578,2.392,8.645,5.857,11.014v11.733h-2.269c-3.054,0-5.53,2.476-5.53,5.53v53.396c0,3.054,2.476,5.53,5.53,5.53h20.241
		c3.054,0,5.53-2.476,5.53-5.53v-53.396c0-3.054-2.476-5.53-5.53-5.53h-2.341v-12.113c3.327-2.513,5.369-6.468,5.347-10.769
		l-0.495-98.58c-0.088-17.421-14.333-31.595-31.754-31.595h-14.132c-1.758,4.592-14.37,38.531-16.255,43.457l3.922-18.475
		c0.275-1.297,0.075-2.65-0.564-3.813l-5.385-9.795l4.788-8.486c0.332-0.604,0.321-1.338-0.03-1.931
		c-0.351-0.593-0.989-0.957-1.678-0.957H74.765c-0.689,0-1.327,0.364-1.678,0.957c-0.351,0.593-0.362,1.327-0.03,1.931l4.788,8.486
		l-5.406,9.831c-0.627,1.14-0.832,2.465-0.578,3.741l3.429,18.51c-1.712-4.392-13.866-38.684-15.727-43.457H45.204
		c-17.422,0-31.667,14.173-31.754,31.595l-0.495,98.58c-0.037,7.411,5.94,13.448,13.351,13.486c0.023,0,0.046,0,0.069,0
		c7.379,0,13.379-5.963,13.417-13.351l0.495-98.58c0.007-1.429,1.169-2.582,2.598-2.578c1.428,0.004,2.584,1.163,2.584,2.591
		l0.006,225.556c0,7.409,5.01,13.632,11.822,15.509H6.776c-3.742,0-6.776,3.033-6.776,6.775c0,14.781,0,49.861,0,65.688
		c0,3.743,3.033,6.775,6.776,6.775c57.149,0,442.525,0,449.416,0c3.742,0,6.776-3.034,6.776-6.776v-26.067
		C462.968,422.83,459.935,419.796,456.192,419.796z M77.679,364.668v-125.23c0-1.92,1.556-3.476,3.476-3.476
		s3.476,1.556,3.476,3.476v125.23c0,7.409,5.01,13.632,11.822,15.509H65.857C72.669,378.3,77.679,372.077,77.679,364.668z
		 M226.679,325.335v-125.23c0-1.92,1.556-3.476,3.476-3.476s3.476,1.556,3.476,3.476v125.23c0,7.066,4.558,13.055,10.89,15.223
		h-28.732C222.12,338.39,226.679,332.401,226.679,325.335z M379.012,405.335v-125.23c0-1.92,1.556-3.476,3.476-3.476
		s3.476,1.556,3.476,3.476v125.23c0,6.362,3.699,11.846,9.055,14.461h-25.063C375.313,417.181,379.012,411.697,379.012,405.335z"/>
</g>
<g>
</g>
<g>
</g>
<g>
</g>
<g>
</g>
<g>
</g>
<g>
</g>
<g>
</g>
<g>
</g>
<g>
</g>
<g>
</g>
<g>
</g>
<g>
</g>
<g>
</g>
<g>
</g>
<g>
</g>
</svg>
