<svg fill="#000000" xmlns="http://www.w3.org/2000/svg"  viewBox="0 0 50 50" width="100px" height="100px"><path d="M 4.9433594 4 A 1.0001 1.0001 0 0 0 4 5 L 4 43.09375 C 4 44.66261 5.2463594 46 6.8183594 46 L 35 46 A 1.0001 1.0001 0 0 0 35.707031 45.707031 L 45.707031 35.707031 A 1.0001 1.0001 0 0 0 46 35 L 46 5 A 1.0001 1.0001 0 0 0 44.400391 4.1992188 L 41 6.75 L 37.599609 4.1992188 A 1.0001 1.0001 0 0 0 36.400391 4.1992188 L 33 6.75 L 29.599609 4.1992188 A 1.0001 1.0001 0 0 0 28.400391 4.1992188 L 25 6.75 L 21.599609 4.1992188 A 1.0001 1.0001 0 0 0 20.400391 4.1992188 L 17 6.75 L 13.599609 4.1992188 A 1.0001 1.0001 0 0 0 13.042969 4 A 1.0001 1.0001 0 0 0 12.400391 4.1992188 L 9 6.75 L 5.5996094 4.1992188 A 1.0001 1.0001 0 0 0 5.0429688 4 A 1.0001 1.0001 0 0 0 4.9433594 4 z M 13 6.25 L 16.400391 8.8007812 A 1.0001 1.0001 0 0 0 17.599609 8.8007812 L 21 6.25 L 24.400391 8.8007812 A 1.0001 1.0001 0 0 0 25.599609 8.8007812 L 29 6.25 L 32.400391 8.8007812 A 1.0001 1.0001 0 0 0 33.599609 8.8007812 L 37 6.25 L 40.400391 8.8007812 A 1.0001 1.0001 0 0 0 41.599609 8.8007812 L 44 7 L 44 34 L 34 34 L 34 44 L 6.8183594 44 C 6.3903594 44 6 43.62289 6 43.09375 L 6 7 L 8.4003906 8.8007812 A 1.0001 1.0001 0 0 0 9.5996094 8.8007812 L 13 6.25 z M 8 11 L 8 12 L 8 17 L 42 17 L 42 11 L 8 11 z M 10 13 L 40 13 L 40 15 L 10 15 L 10 13 z M 8 21 L 8 22 L 8 35 L 23 35 L 23 21 L 8 21 z M 26 21 L 26 23 L 41 23 L 41 21 L 26 21 z M 10 23 L 21 23 L 21 33 L 10 33 L 10 23 z M 13.199219 25 L 12 26.199219 L 12 29.699219 L 13.199219 30.800781 L 17.800781 30.800781 L 19 29.699219 L 19 28.5 L 19 27.300781 L 17.800781 27.300781 L 16.699219 27.300781 L 15.5 28.5 L 17.800781 28.5 L 17.800781 29.699219 L 14.300781 29.699219 L 13.199219 29.699219 L 13.199219 26.199219 L 13.199219 25 z M 13.199219 26.199219 L 14.300781 26.199219 L 14.300781 29.699219 L 15.5 28.5 L 15.5 26.199219 L 19 26.199219 L 17.800781 25 L 14.300781 25 L 13.199219 26.199219 z M 26 25 L 26 27 L 41 27 L 41 25 L 26 25 z M 26 29 L 26 31 L 41 31 L 41 29 L 26 29 z M 26 34 L 26 36 L 32 36 L 32 34 L 26 34 z M 36 36 L 42.585938 36 L 36 42.585938 L 36 36 z M 8 37 L 8 39 L 23 39 L 23 37 L 8 37 z M 26 38 L 26 40 L 32 40 L 32 38 L 26 38 z"/></svg>